<svg width="80" height="63" viewBox="0 0 80 63" fill="none" xmlns="http://www.w3.org/2000/svg">
<rect width="80" height="63" fill="#D9D9D9"/>
<ellipse cx="39.5" cy="31.5" rx="15.5" ry="12.5" fill="#15B86A"/>
<path d="M17.6605 56V47.2727H21.2656C21.919 47.2727 22.483 47.3906 22.9574 47.6264C23.4347 47.8594 23.8026 48.1946 24.0611 48.6321C24.3196 49.0668 24.4489 49.5824 24.4489 50.179C24.4489 50.7841 24.3168 51.2983 24.0526 51.7216C23.7884 52.142 23.4134 52.4631 22.9276 52.6847C22.4418 52.9034 21.8665 53.0128 21.2017 53.0128H18.9219V51.3509H20.8097C21.1278 51.3509 21.3935 51.3097 21.6065 51.2273C21.8224 51.142 21.9858 51.0142 22.0966 50.8438C22.2074 50.6705 22.2628 50.4489 22.2628 50.179C22.2628 49.9091 22.2074 49.6861 22.0966 49.5099C21.9858 49.331 21.8224 49.1974 21.6065 49.1094C21.3906 49.0185 21.125 48.973 20.8097 48.973H19.7699V56H17.6605ZM22.5739 52.0114L24.7472 56H22.446L20.3153 52.0114H22.5739ZM28.5366 56.1236C27.8519 56.1236 27.261 55.9886 26.7638 55.7188C26.2695 55.446 25.8888 55.0582 25.6218 54.5554C25.3576 54.0497 25.2255 53.4489 25.2255 52.7528C25.2255 52.0767 25.359 51.4858 25.6261 50.9801C25.8931 50.4716 26.2695 50.0767 26.7553 49.7955C27.2411 49.5114 27.8136 49.3693 28.4727 49.3693C28.9386 49.3693 29.3647 49.4418 29.7511 49.5866C30.1374 49.7315 30.4712 49.946 30.7525 50.2301C31.0337 50.5142 31.2525 50.8651 31.4087 51.2827C31.565 51.6974 31.6431 52.1733 31.6431 52.7102V53.2301H25.9542V52.0199H29.7042C29.7013 51.7983 29.6488 51.6009 29.5465 51.4276C29.4442 51.2543 29.3036 51.1193 29.1246 51.0227C28.9485 50.9233 28.7454 50.8736 28.5153 50.8736C28.2823 50.8736 28.0735 50.9261 27.8888 51.0312C27.7042 51.1335 27.5579 51.2741 27.4499 51.4531C27.342 51.6293 27.2852 51.8295 27.2795 52.054V53.2855C27.2795 53.5526 27.332 53.7869 27.4371 53.9886C27.5423 54.1875 27.6914 54.3423 27.8846 54.4531C28.0778 54.5639 28.3079 54.6193 28.5749 54.6193C28.7596 54.6193 28.9272 54.5937 29.0778 54.5426C29.2283 54.4915 29.3576 54.4162 29.4656 54.3168C29.5735 54.2173 29.6545 54.0952 29.7085 53.9503L31.6218 54.0057C31.5423 54.4347 31.3675 54.8082 31.0977 55.1264C30.8306 55.4418 30.4798 55.6875 30.0451 55.8636C29.6104 56.0369 29.1076 56.1236 28.5366 56.1236ZM38.4219 51.4531L36.5085 51.5043C36.4886 51.3679 36.4347 51.2472 36.3466 51.142C36.2585 51.0341 36.1435 50.9503 36.0014 50.8906C35.8622 50.8281 35.7003 50.7969 35.5156 50.7969C35.2741 50.7969 35.0682 50.8452 34.8977 50.9418C34.7301 51.0384 34.6477 51.169 34.6506 51.3338C34.6477 51.4616 34.6989 51.5724 34.804 51.6662C34.9119 51.7599 35.1037 51.8352 35.3793 51.892L36.6406 52.1307C37.294 52.2557 37.7798 52.4631 38.098 52.7528C38.419 53.0426 38.581 53.4261 38.5838 53.9034C38.581 54.3523 38.4474 54.7429 38.1832 55.0753C37.9219 55.4077 37.5639 55.6662 37.1094 55.8509C36.6548 56.0327 36.1349 56.1236 35.5497 56.1236C34.6151 56.1236 33.8778 55.9318 33.3381 55.5483C32.8011 55.1619 32.4943 54.6449 32.4176 53.9972L34.4759 53.946C34.5213 54.1847 34.6392 54.3665 34.8295 54.4915C35.0199 54.6165 35.2628 54.679 35.5582 54.679C35.8253 54.679 36.0426 54.6293 36.2102 54.5298C36.3778 54.4304 36.4631 54.2983 36.4659 54.1335C36.4631 53.9858 36.3977 53.8679 36.2699 53.7798C36.142 53.6889 35.9418 53.6179 35.669 53.5668L34.527 53.3494C33.8707 53.2301 33.3821 53.0099 33.0611 52.6889C32.7401 52.3651 32.581 51.9531 32.5838 51.4531C32.581 51.0156 32.6974 50.642 32.9332 50.3324C33.169 50.0199 33.5043 49.7812 33.9389 49.6165C34.3736 49.4517 34.8864 49.3693 35.4773 49.3693C36.3636 49.3693 37.0625 49.5554 37.5739 49.9276C38.0852 50.2969 38.3679 50.8054 38.4219 51.4531ZM43.8327 53.1747V49.4545H45.9123V56H43.9265V54.7812H43.8583C43.7134 55.1818 43.4663 55.5 43.1168 55.7358C42.7702 55.9687 42.3512 56.0852 41.8597 56.0852C41.4137 56.0852 41.0217 55.983 40.6836 55.7784C40.3455 55.5739 40.0827 55.2884 39.8952 54.9219C39.7077 54.5526 39.6126 54.1207 39.6097 53.6264V49.4545H41.6935V53.2173C41.6964 53.5724 41.7901 53.8523 41.9748 54.0568C42.1594 54.2614 42.4109 54.3636 42.729 54.3636C42.9364 54.3636 43.1225 54.3182 43.2873 54.2273C43.4549 54.1335 43.587 53.9986 43.6836 53.8224C43.783 53.6435 43.8327 53.4276 43.8327 53.1747ZM47.2386 56V49.4545H49.2202V50.6562H49.2926C49.429 50.2585 49.6591 49.9446 49.983 49.7145C50.3068 49.4844 50.6932 49.3693 51.142 49.3693C51.5966 49.3693 51.9858 49.4858 52.3097 49.7188C52.6335 49.9517 52.8395 50.2642 52.9276 50.6562H52.9957C53.1179 50.267 53.3565 49.956 53.7116 49.723C54.0668 49.4872 54.4858 49.3693 54.9688 49.3693C55.5881 49.3693 56.0909 49.5682 56.4773 49.9659C56.8636 50.3608 57.0568 50.9034 57.0568 51.5938V56H54.973V52.071C54.973 51.7443 54.8892 51.4957 54.7216 51.3253C54.554 51.152 54.3366 51.0653 54.0696 51.0653C53.7827 51.0653 53.5568 51.1591 53.392 51.3466C53.2301 51.5312 53.1491 51.7798 53.1491 52.0923V56H51.1463V52.0497C51.1463 51.7457 51.0639 51.5057 50.8991 51.3295C50.7344 51.1534 50.517 51.0653 50.2472 51.0653C50.0653 51.0653 49.9048 51.1094 49.7656 51.1974C49.6264 51.2827 49.517 51.4048 49.4375 51.5639C49.3608 51.723 49.3224 51.9105 49.3224 52.1264V56H47.2386ZM61.4077 56.1236C60.723 56.1236 60.1321 55.9886 59.6349 55.7188C59.1406 55.446 58.7599 55.0582 58.4929 54.5554C58.2287 54.0497 58.0966 53.4489 58.0966 52.7528C58.0966 52.0767 58.2301 51.4858 58.4972 50.9801C58.7642 50.4716 59.1406 50.0767 59.6264 49.7955C60.1122 49.5114 60.6847 49.3693 61.3438 49.3693C61.8097 49.3693 62.2358 49.4418 62.6222 49.5866C63.0085 49.7315 63.3423 49.946 63.6236 50.2301C63.9048 50.5142 64.1236 50.8651 64.2798 51.2827C64.4361 51.6974 64.5142 52.1733 64.5142 52.7102V53.2301H58.8253V52.0199H62.5753C62.5724 51.7983 62.5199 51.6009 62.4176 51.4276C62.3153 51.2543 62.1747 51.1193 61.9957 51.0227C61.8196 50.9233 61.6165 50.8736 61.3864 50.8736C61.1534 50.8736 60.9446 50.9261 60.7599 51.0312C60.5753 51.1335 60.429 51.2741 60.321 51.4531C60.2131 51.6293 60.1563 51.8295 60.1506 52.054V53.2855C60.1506 53.5526 60.2031 53.7869 60.3082 53.9886C60.4134 54.1875 60.5625 54.3423 60.7557 54.4531C60.9489 54.5639 61.179 54.6193 61.446 54.6193C61.6307 54.6193 61.7983 54.5937 61.9489 54.5426C62.0994 54.4915 62.2287 54.4162 62.3366 54.3168C62.4446 54.2173 62.5256 54.0952 62.5795 53.9503L64.4929 54.0057C64.4134 54.4347 64.2386 54.8082 63.9688 55.1264C63.7017 55.4418 63.3509 55.6875 62.9162 55.8636C62.4815 56.0369 61.9787 56.1236 61.4077 56.1236Z" fill="black"/>
</svg>
